<svg width="127" height="23" viewBox="0 0 127 23" fill="none" xmlns="http://www.w3.org/2000/svg">
<path d="M8.41406 3.52734L3.55078 18H0.140625L6.51562 0.9375H8.69531L8.41406 3.52734ZM12.4805 18L7.59375 3.52734L7.30078 0.9375H9.49219L15.9023 18H12.4805ZM12.2578 11.6602V14.2031H3.10547V11.6602H12.2578ZM22.6289 15.7969C23.0664 15.7969 23.457 15.7109 23.8008 15.5391C24.1445 15.3672 24.418 15.125 24.6211 14.8125C24.832 14.5 24.9453 14.1367 24.9609 13.7227H27.8789C27.8633 14.582 27.6211 15.3516 27.1523 16.0312C26.6836 16.7109 26.0586 17.25 25.2773 17.6484C24.5039 18.0391 23.6367 18.2344 22.6758 18.2344C21.6992 18.2344 20.8477 18.0703 20.1211 17.7422C19.3945 17.4141 18.7891 16.957 18.3047 16.3711C17.8281 15.7852 17.4688 15.1055 17.2266 14.332C16.9922 13.5586 16.875 12.7305 16.875 11.8477V11.4727C16.875 10.5898 16.9922 9.76172 17.2266 8.98828C17.4688 8.21484 17.8281 7.53516 18.3047 6.94922C18.7891 6.36328 19.3945 5.90625 20.1211 5.57812C20.8477 5.25 21.6953 5.08594 22.6641 5.08594C23.6875 5.08594 24.5859 5.28516 25.3594 5.68359C26.1406 6.08203 26.75 6.64453 27.1875 7.37109C27.6328 8.09766 27.8633 8.95312 27.8789 9.9375H24.9609C24.9453 9.48438 24.8438 9.07812 24.6562 8.71875C24.4688 8.35938 24.2031 8.07031 23.8594 7.85156C23.5156 7.63281 23.0977 7.52344 22.6055 7.52344C22.082 7.52344 21.6445 7.63281 21.293 7.85156C20.9492 8.07031 20.6797 8.37109 20.4844 8.75391C20.2969 9.12891 20.1641 9.55078 20.0859 10.0195C20.0156 10.4805 19.9805 10.9648 19.9805 11.4727V11.8477C19.9805 12.3633 20.0156 12.8555 20.0859 13.3242C20.1641 13.793 20.2969 14.2148 20.4844 14.5898C20.6797 14.957 20.9492 15.25 21.293 15.4688C21.6445 15.6875 22.0898 15.7969 22.6289 15.7969ZM35.1445 15.7969C35.582 15.7969 35.9727 15.7109 36.3164 15.5391C36.6602 15.3672 36.9336 15.125 37.1367 14.8125C37.3477 14.5 37.4609 14.1367 37.4766 13.7227H40.3945C40.3789 14.582 40.1367 15.3516 39.668 16.0312C39.1992 16.7109 38.5742 17.25 37.793 17.6484C37.0195 18.0391 36.1523 18.2344 35.1914 18.2344C34.2148 18.2344 33.3633 18.0703 32.6367 17.7422C31.9102 17.4141 31.3047 16.957 30.8203 16.3711C30.3438 15.7852 29.9844 15.1055 29.7422 14.332C29.5078 13.5586 29.3906 12.7305 29.3906 11.8477V11.4727C29.3906 10.5898 29.5078 9.76172 29.7422 8.98828C29.9844 8.21484 30.3438 7.53516 30.8203 6.94922C31.3047 6.36328 31.9102 5.90625 32.6367 5.57812C33.3633 5.25 34.2109 5.08594 35.1797 5.08594C36.2031 5.08594 37.1016 5.28516 37.875 5.68359C38.6562 6.08203 39.2656 6.64453 39.7031 7.37109C40.1484 8.09766 40.3789 8.95312 40.3945 9.9375H37.4766C37.4609 9.48438 37.3594 9.07812 37.1719 8.71875C36.9844 8.35938 36.7188 8.07031 36.375 7.85156C36.0312 7.63281 35.6133 7.52344 35.1211 7.52344C34.5977 7.52344 34.1602 7.63281 33.8086 7.85156C33.4648 8.07031 33.1953 8.37109 33 8.75391C32.8125 9.12891 32.6797 9.55078 32.6016 10.0195C32.5312 10.4805 32.4961 10.9648 32.4961 11.4727V11.8477C32.4961 12.3633 32.5312 12.8555 32.6016 13.3242C32.6797 13.793 32.8125 14.2148 33 14.5898C33.1953 14.957 33.4648 15.25 33.8086 15.4688C34.1602 15.6875 34.6055 15.7969 35.1445 15.7969ZM48.1523 18.2344C47.1914 18.2344 46.3281 18.0781 45.5625 17.7656C44.7969 17.4531 44.1445 17.0195 43.6055 16.4648C43.0742 15.9023 42.6641 15.25 42.375 14.5078C42.0938 13.7578 41.9531 12.9531 41.9531 12.0938V11.625C41.9531 10.6484 42.0938 9.76172 42.375 8.96484C42.6562 8.16016 43.0547 7.46875 43.5703 6.89062C44.0859 6.3125 44.7031 5.86719 45.4219 5.55469C46.1406 5.24219 46.9336 5.08594 47.8008 5.08594C48.6992 5.08594 49.4922 5.23828 50.1797 5.54297C50.8672 5.83984 51.4414 6.26172 51.9023 6.80859C52.3633 7.35547 52.7109 8.01172 52.9453 8.77734C53.1797 9.53516 53.2969 10.375 53.2969 11.2969V12.5977H43.3594V10.4648H50.25V10.2305C50.2344 9.73828 50.1406 9.28906 49.9688 8.88281C49.7969 8.46875 49.5312 8.14062 49.1719 7.89844C48.8125 7.64844 48.3477 7.52344 47.7773 7.52344C47.3164 7.52344 46.9141 7.625 46.5703 7.82812C46.2344 8.02344 45.9531 8.30469 45.7266 8.67188C45.5078 9.03125 45.3438 9.46094 45.2344 9.96094C45.125 10.4609 45.0703 11.0156 45.0703 11.625V12.0938C45.0703 12.625 45.1406 13.1172 45.2812 13.5703C45.4297 14.0234 45.6445 14.418 45.9258 14.7539C46.2148 15.082 46.5586 15.3398 46.957 15.5273C47.3633 15.707 47.8242 15.7969 48.3398 15.7969C48.9883 15.7969 49.5742 15.6719 50.0977 15.4219C50.6289 15.1641 51.0898 14.7852 51.4805 14.2852L53.0391 15.9023C52.7734 16.293 52.4141 16.668 51.9609 17.0273C51.5156 17.3867 50.9766 17.6797 50.3438 17.9062C49.7109 18.125 48.9805 18.2344 48.1523 18.2344ZM58.4648 7.75781V22.875H55.3594V5.32031H58.2305L58.4648 7.75781ZM66.6094 11.5312V11.7773C66.6094 12.6992 66.5 13.5547 66.2812 14.3438C66.0703 15.125 65.7578 15.8086 65.3438 16.3945C64.9297 16.9727 64.4141 17.4258 63.7969 17.7539C63.1875 18.0742 62.4844 18.2344 61.6875 18.2344C60.9062 18.2344 60.2266 18.0859 59.6484 17.7891C59.0703 17.4844 58.582 17.0547 58.1836 16.5C57.7852 15.9453 57.4648 15.3008 57.2227 14.5664C56.9883 13.8242 56.8125 13.0156 56.6953 12.1406V11.3555C56.8125 10.4258 56.9883 9.58203 57.2227 8.82422C57.4648 8.05859 57.7852 7.39844 58.1836 6.84375C58.582 6.28125 59.0664 5.84766 59.6367 5.54297C60.2148 5.23828 60.8906 5.08594 61.6641 5.08594C62.4688 5.08594 63.1758 5.23828 63.7852 5.54297C64.4023 5.84766 64.9219 6.28516 65.3438 6.85547C65.7656 7.42578 66.082 8.10547 66.293 8.89453C66.5039 9.68359 66.6094 10.5625 66.6094 11.5312ZM63.5039 11.7773V11.5312C63.5039 10.9688 63.4531 10.4492 63.3516 9.97266C63.25 9.48828 63.0938 9.06641 62.8828 8.70703C62.6719 8.33984 62.3984 8.05469 62.0625 7.85156C61.7266 7.64844 61.3203 7.54688 60.8438 7.54688C60.3672 7.54688 59.957 7.625 59.6133 7.78125C59.2695 7.9375 58.9883 8.16016 58.7695 8.44922C58.5508 8.73828 58.3789 9.08203 58.2539 9.48047C58.1367 9.87109 58.0586 10.3047 58.0195 10.7812V12.7266C58.0898 13.3047 58.2266 13.8242 58.4297 14.2852C58.6328 14.7461 58.9297 15.1133 59.3203 15.3867C59.7188 15.6602 60.2344 15.7969 60.8672 15.7969C61.3438 15.7969 61.75 15.6914 62.0859 15.4805C62.4219 15.2695 62.6953 14.9805 62.9062 14.6133C63.1172 14.2383 63.2695 13.8086 63.3633 13.3242C63.457 12.8398 63.5039 12.3242 63.5039 11.7773ZM74.8711 5.32031V7.54688H67.6055V5.32031H74.8711ZM69.5508 2.20312H72.6562V14.3438C72.6562 14.7188 72.707 15.0078 72.8086 15.2109C72.9102 15.4141 73.0625 15.5508 73.2656 15.6211C73.4688 15.6914 73.7109 15.7266 73.9922 15.7266C74.1953 15.7266 74.3828 15.7148 74.5547 15.6914C74.7266 15.668 74.8711 15.6445 74.9883 15.6211L75 17.9414C74.7422 18.0273 74.4492 18.0977 74.1211 18.1523C73.8008 18.207 73.4375 18.2344 73.0312 18.2344C72.3359 18.2344 71.7266 18.1172 71.2031 17.8828C70.6797 17.6406 70.2734 17.2539 69.9844 16.7227C69.6953 16.1836 69.5508 15.4727 69.5508 14.5898V2.20312ZM83.918 15.3047V9.45703C83.918 9.02734 83.8438 8.65625 83.6953 8.34375C83.5469 8.03125 83.3203 7.78906 83.0156 7.61719C82.7109 7.44531 82.3242 7.35938 81.8555 7.35938C81.4414 7.35938 81.0781 7.42969 80.7656 7.57031C80.4609 7.71094 80.2266 7.91016 80.0625 8.16797C79.8984 8.41797 79.8164 8.70703 79.8164 9.03516H76.7109C76.7109 8.51172 76.8359 8.01562 77.0859 7.54688C77.3359 7.07031 77.6914 6.64844 78.1523 6.28125C78.6211 5.90625 79.1797 5.61328 79.8281 5.40234C80.4844 5.19141 81.2188 5.08594 82.0312 5.08594C82.9922 5.08594 83.8477 5.25 84.5977 5.57812C85.3555 5.89844 85.9492 6.38281 86.3789 7.03125C86.8164 7.67969 87.0352 8.49609 87.0352 9.48047V15.0117C87.0352 15.6445 87.0742 16.1875 87.1523 16.6406C87.2383 17.0859 87.3633 17.4727 87.5273 17.8008V18H84.375C84.2266 17.6797 84.1133 17.2734 84.0352 16.7812C83.957 16.2812 83.918 15.7891 83.918 15.3047ZM84.3516 10.2773L84.375 12.1172H82.418C81.9336 12.1172 81.5078 12.168 81.1406 12.2695C80.7734 12.3633 80.4727 12.5039 80.2383 12.6914C80.0039 12.8711 79.8281 13.0898 79.7109 13.3477C79.5938 13.5977 79.5352 13.8828 79.5352 14.2031C79.5352 14.5156 79.6055 14.7969 79.7461 15.0469C79.8945 15.2969 80.1055 15.4961 80.3789 15.6445C80.6602 15.7852 80.9883 15.8555 81.3633 15.8555C81.9102 15.8555 82.3867 15.7461 82.793 15.5273C83.1992 15.3008 83.5156 15.0273 83.7422 14.707C83.9688 14.3867 84.0898 14.082 84.1055 13.793L84.9961 15.1289C84.8867 15.4492 84.7227 15.7891 84.5039 16.1484C84.2852 16.5078 84.0039 16.8438 83.6602 17.1562C83.3164 17.4688 82.9023 17.7266 82.418 17.9297C81.9336 18.1328 81.3711 18.2344 80.7305 18.2344C79.9102 18.2344 79.1758 18.0703 78.5273 17.7422C77.8789 17.4141 77.3672 16.9648 76.9922 16.3945C76.6172 15.8242 76.4297 15.1758 76.4297 14.4492C76.4297 13.7773 76.5547 13.1836 76.8047 12.668C77.0547 12.1523 77.4258 11.7188 77.918 11.3672C78.4102 11.0078 79.0195 10.7383 79.7461 10.5586C80.4805 10.3711 81.3203 10.2773 82.2656 10.2773H84.3516ZM92.8594 8.02734V18H89.7656V5.32031H92.6719L92.8594 8.02734ZM92.3672 11.2031H91.4531C91.4609 10.2812 91.5859 9.44531 91.8281 8.69531C92.0703 7.94531 92.4102 7.30078 92.8477 6.76172C93.293 6.22266 93.8203 5.80859 94.4297 5.51953C95.0391 5.23047 95.7188 5.08594 96.4688 5.08594C97.0781 5.08594 97.6289 5.17188 98.1211 5.34375C98.6133 5.51562 99.0352 5.78906 99.3867 6.16406C99.7461 6.53906 100.02 7.03125 100.207 7.64062C100.402 8.24219 100.5 8.98438 100.5 9.86719V18H97.3828V9.84375C97.3828 9.26562 97.2969 8.80859 97.125 8.47266C96.9609 8.13672 96.7188 7.89844 96.3984 7.75781C96.0859 7.61719 95.6992 7.54688 95.2383 7.54688C94.7617 7.54688 94.3438 7.64453 93.9844 7.83984C93.6328 8.02734 93.3359 8.28906 93.0938 8.625C92.8594 8.96094 92.6797 9.34766 92.5547 9.78516C92.4297 10.2227 92.3672 10.6953 92.3672 11.2031ZM108.434 15.7969C108.871 15.7969 109.262 15.7109 109.605 15.5391C109.949 15.3672 110.223 15.125 110.426 14.8125C110.637 14.5 110.75 14.1367 110.766 13.7227H113.684C113.668 14.582 113.426 15.3516 112.957 16.0312C112.488 16.7109 111.863 17.25 111.082 17.6484C110.309 18.0391 109.441 18.2344 108.48 18.2344C107.504 18.2344 106.652 18.0703 105.926 17.7422C105.199 17.4141 104.594 16.957 104.109 16.3711C103.633 15.7852 103.273 15.1055 103.031 14.332C102.797 13.5586 102.68 12.7305 102.68 11.8477V11.4727C102.68 10.5898 102.797 9.76172 103.031 8.98828C103.273 8.21484 103.633 7.53516 104.109 6.94922C104.594 6.36328 105.199 5.90625 105.926 5.57812C106.652 5.25 107.5 5.08594 108.469 5.08594C109.492 5.08594 110.391 5.28516 111.164 5.68359C111.945 6.08203 112.555 6.64453 112.992 7.37109C113.438 8.09766 113.668 8.95312 113.684 9.9375H110.766C110.75 9.48438 110.648 9.07812 110.461 8.71875C110.273 8.35938 110.008 8.07031 109.664 7.85156C109.32 7.63281 108.902 7.52344 108.41 7.52344C107.887 7.52344 107.449 7.63281 107.098 7.85156C106.754 8.07031 106.484 8.37109 106.289 8.75391C106.102 9.12891 105.969 9.55078 105.891 10.0195C105.82 10.4805 105.785 10.9648 105.785 11.4727V11.8477C105.785 12.3633 105.82 12.8555 105.891 13.3242C105.969 13.793 106.102 14.2148 106.289 14.5898C106.484 14.957 106.754 15.25 107.098 15.4688C107.449 15.6875 107.895 15.7969 108.434 15.7969ZM121.441 18.2344C120.48 18.2344 119.617 18.0781 118.852 17.7656C118.086 17.4531 117.434 17.0195 116.895 16.4648C116.363 15.9023 115.953 15.25 115.664 14.5078C115.383 13.7578 115.242 12.9531 115.242 12.0938V11.625C115.242 10.6484 115.383 9.76172 115.664 8.96484C115.945 8.16016 116.344 7.46875 116.859 6.89062C117.375 6.3125 117.992 5.86719 118.711 5.55469C119.43 5.24219 120.223 5.08594 121.09 5.08594C121.988 5.08594 122.781 5.23828 123.469 5.54297C124.156 5.83984 124.73 6.26172 125.191 6.80859C125.652 7.35547 126 8.01172 126.234 8.77734C126.469 9.53516 126.586 10.375 126.586 11.2969V12.5977H116.648V10.4648H123.539V10.2305C123.523 9.73828 123.43 9.28906 123.258 8.88281C123.086 8.46875 122.82 8.14062 122.461 7.89844C122.102 7.64844 121.637 7.52344 121.066 7.52344C120.605 7.52344 120.203 7.625 119.859 7.82812C119.523 8.02344 119.242 8.30469 119.016 8.67188C118.797 9.03125 118.633 9.46094 118.523 9.96094C118.414 10.4609 118.359 11.0156 118.359 11.625V12.0938C118.359 12.625 118.43 13.1172 118.57 13.5703C118.719 14.0234 118.934 14.418 119.215 14.7539C119.504 15.082 119.848 15.3398 120.246 15.5273C120.652 15.707 121.113 15.7969 121.629 15.7969C122.277 15.7969 122.863 15.6719 123.387 15.4219C123.918 15.1641 124.379 14.7852 124.77 14.2852L126.328 15.9023C126.062 16.293 125.703 16.668 125.25 17.0273C124.805 17.3867 124.266 17.6797 123.633 17.9062C123 18.125 122.27 18.2344 121.441 18.2344Z" fill="#0A0A0A"/>
</svg>
